<mxfile host="app.diagrams.net" agent="Mozilla/5.0 (Windows NT 10.0; Win64; x64) AppleWebKit/537.36 (KHTML, like Gecko) Chrome/130.0.0.0 Safari/537.36" version="24.9.0">
  <diagram name="Page-1" id="tvV6F9p1IGlMY8s74ikh">
    <mxGraphModel dx="965" dy="510" grid="1" gridSize="10" guides="1" tooltips="1" connect="1" arrows="1" fold="1" page="1" pageScale="1" pageWidth="850" pageHeight="1100" math="0" shadow="0">
      <root>
        <mxCell id="0" />
        <mxCell id="1" parent="0" />
        <mxCell id="SYPircYb2qiG9cGxjsWl-3" value="" style="edgeStyle=orthogonalEdgeStyle;rounded=0;orthogonalLoop=1;jettySize=auto;html=1;" edge="1" parent="1" source="SYPircYb2qiG9cGxjsWl-1" target="SYPircYb2qiG9cGxjsWl-2">
          <mxGeometry relative="1" as="geometry" />
        </mxCell>
        <mxCell id="SYPircYb2qiG9cGxjsWl-1" value="start" style="strokeWidth=2;html=1;shape=mxgraph.flowchart.start_1;whiteSpace=wrap;" vertex="1" parent="1">
          <mxGeometry x="375" y="90" width="100" height="60" as="geometry" />
        </mxCell>
        <mxCell id="SYPircYb2qiG9cGxjsWl-7" value="" style="edgeStyle=orthogonalEdgeStyle;rounded=0;orthogonalLoop=1;jettySize=auto;html=1;" edge="1" parent="1" source="SYPircYb2qiG9cGxjsWl-2" target="SYPircYb2qiG9cGxjsWl-6">
          <mxGeometry relative="1" as="geometry" />
        </mxCell>
        <mxCell id="SYPircYb2qiG9cGxjsWl-2" value="กำหนดค่า a = 0 , b = 0" style="whiteSpace=wrap;html=1;strokeWidth=2;" vertex="1" parent="1">
          <mxGeometry x="365" y="190" width="120" height="60" as="geometry" />
        </mxCell>
        <mxCell id="SYPircYb2qiG9cGxjsWl-12" value="" style="edgeStyle=orthogonalEdgeStyle;rounded=0;orthogonalLoop=1;jettySize=auto;html=1;entryX=0.502;entryY=0.204;entryDx=0;entryDy=0;entryPerimeter=0;" edge="1" parent="1" source="SYPircYb2qiG9cGxjsWl-6" target="SYPircYb2qiG9cGxjsWl-10">
          <mxGeometry relative="1" as="geometry">
            <mxPoint x="425" y="505" as="targetPoint" />
          </mxGeometry>
        </mxCell>
        <mxCell id="SYPircYb2qiG9cGxjsWl-6" value="แสดงค่าคำว่า&lt;div&gt;Please enter value (a b) :&lt;/div&gt;" style="shape=parallelogram;perimeter=parallelogramPerimeter;whiteSpace=wrap;html=1;fixedSize=1;strokeWidth=2;" vertex="1" parent="1">
          <mxGeometry x="350" y="290" width="150" height="90" as="geometry" />
        </mxCell>
        <mxCell id="SYPircYb2qiG9cGxjsWl-14" value="" style="edgeStyle=orthogonalEdgeStyle;rounded=0;orthogonalLoop=1;jettySize=auto;html=1;" edge="1" parent="1" source="SYPircYb2qiG9cGxjsWl-10" target="SYPircYb2qiG9cGxjsWl-13">
          <mxGeometry relative="1" as="geometry" />
        </mxCell>
        <mxCell id="SYPircYb2qiG9cGxjsWl-10" value="พิมพ์ตัวเลขที่ต้องการ&lt;div&gt;2ตัวเลข&lt;/div&gt;" style="shape=manualInput;whiteSpace=wrap;html=1;strokeWidth=2;" vertex="1" parent="1">
          <mxGeometry x="350" y="420" width="150" height="90" as="geometry" />
        </mxCell>
        <mxCell id="SYPircYb2qiG9cGxjsWl-13" value="" style="shape=parallelogram;perimeter=parallelogramPerimeter;whiteSpace=wrap;html=1;fixedSize=1;strokeWidth=2;" vertex="1" parent="1">
          <mxGeometry x="340" y="570" width="170" height="70" as="geometry" />
        </mxCell>
      </root>
    </mxGraphModel>
  </diagram>
</mxfile>
